<?xml version="1.0" standalone="no"?>
<!DOCTYPE svg PUBLIC "-//W3C//DTD SVG 1.1//EN" "http://www.w3.org/Graphics/SVG/1.1/DTD/svg11.dtd" >
<svg xmlns="http://www.w3.org/2000/svg">
<metadata>Generated by IcoMoon</metadata>
<defs>
<font id="icomoon" horiz-adv-x="1024">
<font-face units-per-em="1024" ascent="960" descent="-64" />
<missing-glyph horiz-adv-x="1024" />
<glyph unicode="&#x20;" horiz-adv-x="512" d="" />
<glyph unicode="&#xe900;" glyph-name="google-plus, brand, social" d="M325.8 502.6v-111.8h184.8c-7.4-48-55.8-140.6-184.8-140.6-111.2 0-202 92.2-202 205.8s90.8 205.8 202 205.8c63.4 0 105.6-27 129.8-50.2l88.4 85.2c-56.8 53-130.4 85.2-218.2 85.2-180.2-0.2-325.8-145.8-325.8-326s145.6-325.8 325.8-325.8c188 0 312.8 132.2 312.8 318.4 0 21.4-2.4 37.8-5.2 54h-307.6zM1024 512h-96v96h-96v-96h-96v-96h96v-96h96v96h96z" />
<glyph unicode="&#xe901;" glyph-name="bag" horiz-adv-x="881" d="M815.742 680.172h-110.756v6.915c0.22 4.042 0.346 8.774 0.346 13.534 0 146.397-118.679 265.076-265.076 265.076s-265.076-118.679-265.076-265.076c0-4.761 0.125-9.492 0.373-14.191l-0.028 0.657v-6.915h-110.756l-64.828-744.114h880.513zM440.429 926.635c97.077-0.944 179.859-61.145 213.983-146.126l0.556-1.567c-45.518 71.772-124.546 118.721-214.539 118.721s-169.021-46.948-213.927-117.689l-0.612-1.032c34.744 86.499 117.487 146.666 214.411 147.692l0.128 0.001zM224.681 680.287c19.724 102.662 108.831 179.17 215.806 179.17s196.082-76.509 215.586-177.792l0.221-1.378z" />
<glyph unicode="&#xe902;" glyph-name="bathroom" horiz-adv-x="796" d="M756.337 508.545l-35.514 77.048c-2.19 5.777-7.677 9.809-14.107 9.809-8.311 0-15.048-6.737-15.048-15.048 0-2.7 0.711-5.234 1.956-7.425l-0.039 0.074 29.646-64.458h-388.251c-8.311 0-15.048-6.737-15.048-15.048s6.737-15.048 15.048-15.048h418.097c7.314 0 13.243-5.929 13.243-13.243v0-31.050c0-7.314-5.929-13.243-13.243-13.243h-539.89c-7.314 0-13.243 5.929-13.243 13.243v0 31.15c0.057 7.27 5.964 13.142 13.242 13.142 0 0 0 0 0 0h57.887c8.311 0 15.048 6.737 15.048 15.048s-6.737 15.048-15.048 15.048h-28.040l72.935 157.809c3.095 6.533 9.63 10.974 17.204 10.985h299.919c7.575-0.012 14.11-4.452 17.156-10.87l0.049-0.115 16.353-35.113c2.627-4.627 7.52-7.698 13.131-7.698 8.311 0 15.048 6.737 15.048 15.048 0 1.882-0.345 3.683-0.976 5.343l0.034-0.103-16.353 35.113c-7.991 16.882-24.873 28.358-44.439 28.391h-100.327c-7.478 141.213-123.802 252.883-266.208 252.883-147.216 0-266.559-119.343-266.559-266.559 0-0.077 0-0.154 0-0.231v0.012-489.778c0-8.311 6.737-15.048 15.048-15.048s15.048 6.737 15.048 15.048v0 489.778c0 0.036 0 0.079 0 0.122 0 130.65 105.913 236.562 236.562 236.562 125.805 0 228.673-98.203 236.13-222.133l0.032-0.657h-40.129c-7.548 102.361-92.45 182.55-196.082 182.55-108.521 0-196.504-87.934-196.583-196.437v-742.4c0-8.311 6.737-15.048 15.048-15.048s15.048 6.737 15.048 15.048v0 742.392c0 0.105 0 0.23 0 0.354 0 91.976 74.561 166.537 166.537 166.537 87.209 0 158.762-67.034 165.944-152.386l0.041-0.609h-99.32c-19.57-0.033-36.452-11.509-44.316-28.093l-0.127-0.298-78.954-170.399c-22.48-1.695-40.083-20.329-40.129-43.084v-31.055c0.029-23.869 19.37-43.211 43.237-43.239h540.043c23.869 0.029 43.211 19.37 43.239 43.237v30.903c0 0.023 0 0.050 0 0.077 0 22.743-17.538 41.39-39.828 43.153l-0.151 0.010zM14.998 154.755c-8.311 0-15.048-6.737-15.048-15.048v-188.758c0-8.311 6.737-15.048 15.048-15.048s15.048 6.737 15.048 15.048v0 188.758c0 8.311-6.737 15.048-15.048 15.048v0zM266.559 329.368c-8.311 0-15.048-6.737-15.048-15.048v-73.738c0-8.311 6.737-15.048 15.048-15.048s15.048 6.737 15.048 15.048v73.738c0 8.311-6.737 15.048-15.048 15.048v0zM266.559 174.268c-8.311 0-15.048-6.737-15.048-15.048v-208.271c0-8.311 6.737-15.048 15.048-15.048s15.048 6.737 15.048 15.048v0 208.271c0 8.311-6.737 15.048-15.048 15.048v0zM385.793 255.58c-8.311 0-15.048-6.737-15.048-15.048v0-170.8c0-8.311 6.737-15.048 15.048-15.048s15.048 6.737 15.048 15.048v0 170.8c0 8.311-6.737 15.048-15.048 15.048v0zM699.705 329.368c-8.311 0-15.048-6.737-15.048-15.048v-73.738c0-8.311 6.737-15.048 15.048-15.048s15.048 6.737 15.048 15.048v0 73.738c0 8.311-6.737 15.048-15.048 15.048v0zM699.705 174.268c-8.311 0-15.048-6.737-15.048-15.048v-208.271c0-8.311 6.737-15.048 15.048-15.048s15.048 6.737 15.048 15.048v0 208.271c0 8.311-6.737 15.048-15.048 15.048v0zM580.471 255.58c-8.311 0-15.048-6.737-15.048-15.048v0-170.8c0-8.311 6.737-15.048 15.048-15.048s15.048 6.737 15.048 15.048v0 170.8c0 8.311-6.737 15.048-15.048 15.048v0zM483.157 338.798c-8.311 0-15.048-6.737-15.048-15.048v0-168.643c0-8.311 6.737-15.048 15.048-15.048s15.048 6.737 15.048 15.048v0 168.593c0 0.015 0 0.033 0 0.050 0 8.311-6.737 15.048-15.048 15.048 0 0 0 0 0 0v0zM483.157 94.862c-8.311 0-15.048-6.737-15.048-15.048v0-128.865c0-8.311 6.737-15.048 15.048-15.048s15.048 6.737 15.048 15.048v0 128.865c0 8.311-6.737 15.048-15.048 15.048v0z" />
<glyph unicode="&#xe903;" glyph-name="bed" horiz-adv-x="1443" d="M1419.579 192.025h-23.284v186.072c-0.057 51.387-41.699 93.029-93.081 93.086h-0.005v395.73c-0.057 51.37-41.671 93.001-93.028 93.086h-977.44c-51.387-0.057-93.029-41.699-93.086-93.081v-395.635c-51.387-0.057-93.029-41.699-93.086-93.081v-186.077h-23.284c0 0 0 0 0 0-12.859 0-23.284-10.425-23.284-23.284 0-0.035 0-0.071 0-0.106v0.005-93.086c0-12.859 10.425-23.284 23.284-23.284h23.284v-93.137c0-12.859 10.425-23.284 23.284-23.284h69.802c0.013 0 0.028 0 0.043 0 11.23 0 20.599 7.968 22.763 18.558l0.026 0.15 19.563 97.663h1078.816l19.563-97.663c2.189-10.74 11.559-18.708 22.789-18.708 0.015 0 0.030 0 0.045 0h69.649c12.859 0 23.284 10.425 23.284 23.284v0 93.137h23.284c12.859 0 23.284 10.425 23.284 23.284v0 93.086c0 0 0 0 0 0 0 12.824-10.367 23.227-23.178 23.284h-0.005zM186.072 866.914c0.029 25.707 20.861 46.54 46.566 46.568h977.535c25.707-0.029 46.54-20.861 46.568-46.566v-395.633h-46.568v93.086c-0.057 51.387-41.699 93.029-93.081 93.086h-279.315c-51.387-0.057-93.029-41.699-93.086-93.081v-93.091h-46.568v93.086c-0.057 51.387-41.699 93.029-93.081 93.086h-279.214c-51.387-0.057-93.029-41.699-93.086-93.081v-93.091h-46.669zM1163.504 564.37v-93.086h-372.144v93.086c0.029 25.707 20.861 46.54 46.566 46.568h279.262c25.643-0.114 46.389-20.914 46.417-46.566v-0.003zM651.504 564.37v-93.086h-372.144v93.086c0.029 25.707 20.861 46.54 46.566 46.568h279.262c25.643-0.114 46.389-20.914 46.417-46.566v-0.003zM92.986 378.298c0.029 25.707 20.861 46.54 46.566 46.568h1163.708c25.707-0.029 46.54-20.861 46.568-46.566v-186.075h-1256.741zM120.444-17.331h-27.358v69.702h41.439zM1349.676-17.331h-27.458l-13.981 69.802h41.439zM1396.245 99.039h-1349.676v46.267h1349.777z" />
<glyph unicode="&#xe904;" glyph-name="call" horiz-adv-x="711" d="M710.325 62.61c0.354 1.385 0.558 2.974 0.558 4.611 0 7.222-3.96 13.519-9.826 16.838l-0.096 0.050q-22.742 320.205-31.852 640.92-3.185 106.13-4.555 212.26c-0.35 24.972-46.089 32.17-45.739 7.167 0-5.256-41.407 5.287-41.407 0h-519.565c-0.822 0.118-1.772 0.186-2.738 0.186-7.982 0-14.887-4.609-18.2-11.311l-0.053-0.119c-13.25 2.484-29.176-3.536-29.176-18.155v-934.242c-4.743-3.415-7.794-8.921-7.794-15.14 0-6.463 3.296-12.157 8.3-15.491l0.068-0.043c4.396-16.913 33.253-18.665 42.904-5.351q237.9-8.664 476.151-5.861 71.826 0.892 143.619 2.867c0.16-0.004 0.348-0.006 0.537-0.006 7.175 0 13.589 3.259 17.842 8.377l0.031 0.038c10.861 1.401 20.895 9.556 20.13 19.111q-3.185 41.981-6.37 83.961c3.353 2.207 5.886 5.421 7.192 9.206l0.038 0.126zM618.719 905.629c4.236-233.919 13.824-490.771 28.889-724.403q2.93-45.134 6.147-90.3c-151.073 16.435-303.101 26.246-455.479 28.667q-70.36 1.083-140.721 0c-1.19-0.060-2.286-0.174-3.365-0.342l0.18 0.023v786.737c0.984-0.187 2.176-0.335 3.387-0.41l0.085-0.004c187.097-7.644 374.034 7.708 561.004 0.032zM165.884-20.045q-55.74 1.37-111.481 3.472v97.625c0.934-0.121 2.038-0.202 3.156-0.223h0.029c19.22 0.273 41.909 0.428 64.635 0.428 149.132 0 296.702-6.691 442.425-19.788l-18.805 1.364q55.486-4.841 110.748-11.116 2.612-35.706 5.351-71.38-247.838-6.402-495.931-0.382zM359.956 70.701c-12.376-0.667-22.159-10.864-22.159-23.347s9.783-22.681 22.1-23.345l0.059-0.003c12.376 0.667 22.159 10.864 22.159 23.347s-9.783 22.681-22.1 23.345l-0.059 0.003z" />
<glyph unicode="&#xe905;" glyph-name="down-arrow" horiz-adv-x="1901" d="M1002.612-42.533l877.692 877.692c13.238 13.238 21.426 31.526 21.426 51.727 0 40.401-32.752 73.153-73.153 73.153-20.201 0-38.489-8.188-51.727-21.426l-826.044-826.044-825.886 826.044c-13.238 13.238-31.526 21.426-51.727 21.426-40.401 0-73.153-32.752-73.153-73.153 0-20.201 8.188-38.489 21.426-51.727l877.692-877.692c13.234-13.247 31.523-21.442 51.727-21.442s38.493 8.195 51.726 21.441l0.001 0.001z" />
<glyph unicode="&#xe906;" glyph-name="grid-view" d="M432.328 960h-394.408c-20.915-0.067-37.852-17.004-37.919-37.913v-394.414c0.067-20.915 17.004-37.852 37.913-37.919h394.414c20.915 0.067 37.852 17.004 37.919 37.913v394.414c-0.067 20.915-17.004 37.852-37.913 37.919h-0.006zM394.408 565.592h-318.57v318.57h318.57zM986.021 960h-394.408c-20.915-0.067-37.852-17.004-37.919-37.913v-394.414c0.067-20.915 17.004-37.852 37.913-37.919h394.414c20.915 0.067 37.852 17.004 37.919 37.913v394.414c-0.067 20.915-17.004 37.852-37.913 37.919h-0.006zM948.102 565.592h-318.57v318.57h318.57zM432.328 406.307h-394.408c-20.915-0.067-37.852-17.004-37.919-37.913v-394.414c0.067-20.915 17.004-37.852 37.913-37.919h394.414c20.915 0.067 37.852 17.004 37.919 37.913v394.414c-0.067 20.915-17.004 37.852-37.913 37.919h-0.006zM394.408 11.898h-318.57v318.57h318.57zM986.021 406.307h-394.408c-20.915-0.067-37.852-17.004-37.919-37.913v-394.414c0.067-20.915 17.004-37.852 37.913-37.919h394.414c20.915 0.067 37.852 17.004 37.919 37.913v394.414c-0.067 20.915-17.004 37.852-37.913 37.919h-0.006zM948.102 11.898h-318.57v318.57h318.57z" />
<glyph unicode="&#xe907;" glyph-name="list-view" horiz-adv-x="1069" d="M256 960h-191.971c-35.346 0-64-28.654-64-64s28.654-64 64-64v0h192.029c35.346 0 64 28.654 64 64s-28.654 64-64 64v0zM1004.878 960h-576.261c-35.346 0-64-28.654-64-64s28.654-64 64-64v0h576.029c35.346 0 64 28.654 64 64s-28.654 64-64 64v0zM256 511.971h-191.971c-35.346 0-64-28.654-64-64s28.654-64 64-64v0h192.029c35.346 0 64 28.654 64 64s-28.654 64-64 64v0zM1004.878 511.971h-576.261c-35.346 0-64-28.654-64-64s28.654-64 64-64v0h576.029c35.346 0 64 28.654 64 64s-28.654 64-64 64v0zM256 64h-191.971c-35.346 0-64-28.654-64-64s28.654-64 64-64v0h192.029c35.346 0 64 28.654 64 64s-28.654 64-64 64v0zM1004.878 64h-576.261c-35.346 0-64-28.654-64-64s28.654-64 64-64v0h576.029c35.346 0 64 28.654 64 64s-28.654 64-64 64v0z" />
<glyph unicode="&#xe908;" glyph-name="location" horiz-adv-x="757" d="M378.253 960c-208.803-0.249-378.003-169.45-378.253-378.229v-0.024c2.462-53.064 14.023-102.772 33.152-148.529l-1.068 2.882c14.145-31.811 28.785-58.652 45.28-84.182l-1.45 2.396 259.342-392.98c8.603-15.217 24.675-25.322 43.107-25.322s34.504 10.104 42.979 25.076l0.128 0.246 259.386 393.023c15.059 23.143 29.7 49.984 42.286 77.95l1.544 3.837c18.063 42.875 29.623 92.583 32.048 144.679l0.036 0.968c-0.274 208.876-169.615 378.109-378.506 378.209h-0.010zM683.441 453.369c-12.877-28.998-26.186-53.451-41.174-76.72l1.333 2.21-259.386-393.023c-5.128-7.758-6.75-7.758-11.878 0l-259.386 392.98c-13.654 21.059-26.963 45.513-38.42 70.979l-1.421 3.532c-15.743 37.793-25.952 81.586-28.361 127.444l-0.041 0.978c0 184.334 149.432 333.765 333.765 333.765s333.765-149.432 333.765-333.765v0c-2.6-46.865-12.94-90.622-29.765-131l0.969 2.622zM378.253 781.963c-110.6 0-200.259-89.659-200.259-200.259s89.659-200.259 200.259-200.259c110.6 0 200.259 89.659 200.259 200.259v0c-0.125 110.55-89.709 200.135-200.247 200.259h-0.012zM378.253 425.932c-86.030 0-155.772 69.741-155.772 155.772s69.741 155.772 155.772 155.772c86.030 0 155.772-69.741 155.772-155.772v0c-0.1-85.99-69.782-155.672-155.762-155.772h-0.010z" />
<glyph unicode="&#xe909;" glyph-name="login-padlock" horiz-adv-x="759" d="M663.864-64.092h-569.022c-52.448 0.313-94.845 42.903-94.845 95.394 0 0.239 0.001 0.477 0.003 0.715v-0.036 447.992c-0.001 0.183-0.002 0.4-0.002 0.617 0 52.492 42.396 95.081 94.814 95.394h569.052c52.448-0.313 94.844-42.903 94.844-95.394 0-0.217-0.001-0.434-0.002-0.65v0.033-447.992c0.002-0.202 0.002-0.44 0.002-0.679 0-52.492-42.396-95.082-94.815-95.394h-0.030zM94.842 511.977c-17.484-0.139-31.604-14.345-31.604-31.849 0-0.054 0-0.109 0-0.163v0.008-447.992c0-0.046 0-0.1 0-0.155 0-17.504 14.12-31.71 31.591-31.849h569.035c17.484 0.139 31.604 14.345 31.604 31.849 0 0.054 0 0.109 0 0.163v-0.008 447.992c0 0.046 0 0.1 0 0.155 0 17.504-14.12 31.71-31.591 31.849h-0.013zM600.626 512.008c-17.481 0.122-31.604 14.321-31.604 31.818 0 0.065 0 0.13 0.001 0.195v-0.010 160.019c0.010 0.718 0.015 1.566 0.015 2.416 0 104.76-84.925 189.684-189.684 189.684s-189.684-84.925-189.684-189.684c0-0.849 0.006-1.698 0.017-2.545l-0.001 0.129v-160.019c0-17.463-14.156-31.619-31.619-31.619s-31.619 14.156-31.619 31.619v0 160.019c-0.010 0.829-0.015 1.809-0.015 2.79 0 139.685 113.237 252.923 252.923 252.923s252.923-113.237 252.923-252.923c0-0.981-0.006-1.96-0.017-2.939l0.001 0.149v-160.019c0-0.055 0.001-0.12 0.001-0.185 0-17.509-14.141-31.714-31.625-31.819h-0.010zM379.338 149.318c-0.311-0.004-0.678-0.006-1.046-0.006-47.128 0-85.333 38.205-85.333 85.333s38.205 85.333 85.333 85.333c47.126 0 85.33-38.201 85.333-85.327v0c0.001-0.129 0.001-0.281 0.001-0.433 0-46.674-37.663-84.552-84.255-84.9h-0.033zM379.338 255.977c-0.073 0.001-0.16 0.001-0.246 0.001-11.778 0-21.326-9.548-21.326-21.326s9.548-21.326 21.326-21.326c11.777 0 21.325 9.547 21.326 21.324v0c0 0.028 0 0.060 0 0.093 0 11.673-9.419 21.146-21.071 21.233h-0.008z" />
<glyph unicode="&#xe90a;" d="M944.934 304.573l-168.708 56.27v34.212c36.439 24.082 63.368 60.017 75.461 102.222l0.315 1.286c41.129 4.93 72.722 39.547 72.855 81.571v179.667c0 0.040 0 0.088 0 0.136 0 45.952-29.925 84.915-71.351 98.464l-0.732 0.207c-42.254 61.668-112.316 101.603-191.706 101.603-127.942 0-231.659-103.717-231.659-231.659 0-0.074 0-0.148 0-0.222v0.012-148.195c0.133-42.037 31.727-76.654 72.462-81.546l0.393-0.038c12.393-43.497 39.326-79.436 75.097-103.086l0.679-0.422v-34.212l-168.675-56.236c-24.421-8.273-44.579-23.775-58.469-43.931l-0.252-0.387c-36.631 44.259-91.575 72.245-153.056 72.245-109.492 0-198.253-88.761-198.253-198.253s88.761-198.253 198.253-198.253c51.122 0 97.724 19.349 132.883 51.124l-0.172-0.153v-50.999h693.701v258.921c0 0.033 0 0.073 0 0.113 0 50.73-32.727 93.817-78.22 109.299l-0.813 0.24zM858.146 533.412c0.336 4.532 0.705 9.065 0.705 13.698v79.536c19.385-6.916 33.009-25.116 33.009-46.497 0-21.643-13.96-40.026-33.367-46.635l-0.347-0.103zM661.101 926.997c0.094 0 0.205 0 0.316 0 68.543 0 128.955-34.814 164.518-87.723l0.45-0.71 5.741-8.595 6.178-1.544c31.075-7.807 53.718-35.498 53.718-68.477 0-0.040 0-0.080 0-0.12v0.006-114.151c-10.036 7.69-22.175 13.157-35.405 15.442l-0.486 0.069c-6.538 20.113-25.096 34.404-46.998 34.447h-33.042c-45.591 0.057-82.534 37-82.591 82.586v0.006h-33.037c-0.057-45.591-37-82.534-82.586-82.591h-33.042c-21.907-0.043-40.465-14.334-46.905-34.097l-0.099-0.35c-13.627-2.411-25.677-7.87-35.853-15.656l0.197 0.145v82.659c0.134 109.743 89.129 198.656 198.891 198.656 0.012 0 0.024 0 0.036 0h-0.002zM462.445 580.146c0.077 21.365 13.682 39.533 32.692 46.391l0.345 0.109v-79.603c0-4.633 0.336-9.166 0.705-13.698-19.658 6.81-33.529 25.146-33.574 46.729v0.005zM528.518 547.11v99.11c0.019 9.115 7.403 16.499 16.516 16.518h33.039c41.865 0.014 78.53 22.269 98.821 55.591l0.289 0.511c20.58-33.833 57.244-56.088 99.108-56.102h32.837c9.115-0.019 16.499-7.403 16.518-16.516v-99.179c0-82.096-66.552-148.648-148.648-148.648s-148.648 66.552-148.648 148.648v0zM677.149 365.442c23.796 0.030 46.5 4.663 67.284 13.056l-1.211-0.432v-27.094c-7.646-29.86-34.315-51.581-66.056-51.581s-58.41 21.72-65.954 51.109l-0.103 0.472v27.094c19.562-7.956 42.255-12.589 66.026-12.624h0.014zM198.085-30.963c-0.034 0-0.074 0-0.114 0-91.209 0-165.149 73.94-165.149 165.149s73.94 165.149 165.149 165.149c75.165 0 138.601-50.214 158.594-118.926l0.291-1.167 3.357-12.019h432.564v-66.040h-66.073v-66.073h-33.037v66.073h-99.11v-66.073h-33.037v66.073h-201.174l-3.357-12.019c-20.431-69.797-83.786-119.942-158.883-120.127h-0.022zM990.863-30.963h-99.009v165.049h-33.037v-165.149h-495.482v56.068c8.381 12.392 15.666 26.603 21.154 41.679l0.434 1.363h143.595v-66.073h99.11v66.174h33.037v-66.073h99.11v66.073h66.14v132.113h-440.991c-4.142 11.631-8.671 21.49-13.943 30.876l0.514-0.995c9.611 20.285 26.692 35.716 47.601 42.935l0.577 0.173 164.511 54.759c15.719-36.569 51.431-61.711 93.016-61.711s77.297 25.143 92.765 61.055l0.251 0.656 164.344-54.759c33.070-11.249 56.438-42.030 56.438-78.268 0-0.021 0-0.042 0-0.062v0.003z" />
<glyph unicode="&#xe90b;" d="M611.11 613.149c0-9.123-7.395-16.518-16.518-16.518s-16.518 7.395-16.518 16.518c0 9.123 7.395 16.518 16.518 16.518v0c9.123 0 16.518-7.395 16.518-16.518v0z" />
<glyph unicode="&#xe90c;" d="M776.259 613.149c0-9.123-7.395-16.518-16.518-16.518s-16.518 7.395-16.518 16.518c0 9.123 7.395 16.518 16.518 16.518v0c9.123 0 16.518-7.395 16.518-16.518v0z" />
<glyph unicode="&#xe90d;" d="M743.256 514.073h-33.037c0-18.246-14.791-33.037-33.037-33.037s-33.037 14.791-33.037 33.037v0h-33.037c0-36.491 29.582-66.073 66.073-66.073s66.073 29.582 66.073 66.073v0z" />
<glyph unicode="&#xe90e;" d="M148.665 216.777c-45.614 0-82.591-36.977-82.591-82.591s36.977-82.591 82.591-82.591c45.614 0 82.591 36.977 82.591 82.591v0c-0.057 45.591-37 82.534-82.586 82.591h-0.006zM148.665 84.631c-27.368 0-49.555 22.186-49.555 49.555s22.186 49.555 49.555 49.555c27.368 0 49.555-22.186 49.555-49.555v0c-0.038-27.353-22.202-49.517-49.551-49.555h-0.004z" />
<glyph unicode="&#xe90f;" glyph-name="login-user" horiz-adv-x="1012" d="M863.447 298.054c-52.538 53.42-116.821 95.118-188.679 120.925l-3.509 1.1c77.144 54.318 126.926 142.996 126.926 243.301 0 162.342-130.404 294.227-292.177 296.618l-0.225 0.003c-161.893-2.528-292.161-134.36-292.161-296.617 0-100.307 49.785-188.987 125.992-242.677l0.939-0.627c-75.366-26.907-139.649-68.605-192.119-121.956l-0.068-0.069c-91.702-92.464-148.369-219.796-148.369-360.364 0-0.594 0.001-1.188 0.003-1.782v0.092h79.025c-0.003 0.637-0.005 1.391-0.005 2.145 0 236.306 190.669 428.078 426.553 429.865l0.17 0.001c236.055-1.787 426.723-193.56 426.723-429.866 0-0.754-0.002-1.508-0.006-2.261v0.116h79.025c0.002 0.595 0.004 1.299 0.004 2.003 0 140.409-56.535 267.614-148.084 360.092l0.041-0.042zM505.784 448.021c-0.793-0.010-1.729-0.016-2.667-0.016-119.308 0-216.026 96.718-216.026 216.026s96.718 216.026 216.026 216.026c119.308 0 216.026-96.718 216.026-216.026 0-0.009 0-0.017 0-0.026v0.001c0.002-0.319 0.003-0.696 0.003-1.073 0-118.157-95.332-214.048-213.276-214.953l-0.086-0.001z" />
<glyph unicode="&#xe910;" glyph-name="parking" horiz-adv-x="1134" d="M128.007 740.56h36.573c40.398 0 73.147 32.749 73.147 73.147s-32.749 73.147-73.147 73.147h-54.86c-10.099 0-18.287-8.187-18.287-18.287v0-164.58c0-10.099 8.187-18.287 18.287-18.287s18.287 8.187 18.287 18.287v0zM201.153 813.707c-0.030-20.187-16.387-36.543-36.57-36.573h-36.576v73.147h36.573c20.187-0.030 36.543-16.387 36.573-36.57v-0.003zM821.887 270.971c-2.503 7.309-9.312 12.47-17.326 12.475h-219.441c-8.015-0.005-14.824-5.167-17.289-12.347l-0.038-0.129-36.573-109.72c-0.59-1.718-0.93-3.698-0.93-5.758 0-10.089 8.17-18.27 18.256-18.287h292.589c10.087 0.017 18.257 8.198 18.257 18.287 0 2.060-0.34 4.039-0.968 5.887l0.038-0.129zM573.924 173.78l24.364 73.147h193.263l24.364-73.147zM438.827 283.447c-40.398 0-73.147-32.749-73.147-73.147s32.749-73.147 73.147-73.147c40.398 0 73.147 32.749 73.147 73.147v0c0 40.398-32.749 73.147-73.147 73.147v0zM438.827 173.727c-20.199 0-36.573 16.374-36.573 36.573s16.374 36.573 36.573 36.573c20.199 0 36.573-16.374 36.573-36.573v0c0-20.199-16.374-36.573-36.573-36.573v0zM950.853 283.447c-40.398 0-73.147-32.749-73.147-73.147s32.749-73.147 73.147-73.147c40.398 0 73.147 32.749 73.147 73.147v0c0 40.398-32.749 73.147-73.147 73.147v0zM950.853 173.727c-20.199 0-36.573 16.374-36.573 36.573s16.374 36.573 36.573 36.573c20.199 0 36.573-16.374 36.573-36.573v0c0-20.199-16.374-36.573-36.573-36.573v0zM1115.38-27.427h-58.006c1.993 5.432 3.146 11.704 3.146 18.245 0 0.015 0 0.029 0 0.044v-0.002 36.573h18.287c10.099 0 18.287 8.187 18.287 18.287v0 54.86c0 10.099-8.187 18.287-18.287 18.287v0 146.293c-0.030 40.386-32.761 73.116-73.144 73.147h-39.615l-23.831 131.205-1.759 9.81c-6.388 34.39-36.156 60.085-71.926 60.085-0.017 0-0.033 0-0.050 0h-347.284c-0.014 0-0.031 0-0.047 0-35.77 0-65.539-25.694-71.857-59.633l-0.070-0.452-1.759-9.81-23.885-131.259h-39.719c-40.386-0.030-73.116-32.761-73.147-73.144v-146.296c-10.099 0-18.287-8.187-18.287-18.287v0-54.86c0-10.099 8.187-18.287 18.287-18.287v0h18.287v-36.573c0-0.012 0-0.027 0-0.042 0-6.541 1.153-12.813 3.266-18.624l-0.12 0.379h-39.719v36.573c0 10.099-8.187 18.287-18.287 18.287v0h-91.273v530.367h18.287c10.099 0 18.287 8.187 18.287 18.287v0 36.573h73.147c10.099 0 18.287 8.187 18.287 18.287v0 310.82c0 10.099-8.187 18.287-18.287 18.287v0h-255.907c-10.099 0-18.287-8.187-18.287-18.287v0-310.873c0-10.099 8.187-18.287 18.287-18.287v0h73.147v-36.413c0-10.099 8.187-18.287 18.287-18.287v0h18.287v-530.26h-91.54c-10.099 0-18.287-8.187-18.287-18.287v0-36.573h-18.287c-10.099 0-18.287-8.187-18.287-18.287s8.187-18.287 18.287-18.287h1097.093c10.099 0 18.287 8.187 18.287 18.287s-8.187 18.287-18.287 18.287v0zM182.867 594.32h-36.573v18.287h36.573zM54.913 649.18v274.247h219.44v-274.3zM255.907-27.427h-182.76v18.287h182.76zM521.090 502.833h347.393c0.008 0 0.017 0 0.026 0 13.457 0 25.214-7.279 31.549-18.114l0.093-0.173h-410.517c6.428 11.008 18.186 18.287 31.643 18.287 0.009 0 0.018 0 0.027 0h-0.001zM480.731 448.187h428.217l19.939-109.72h-468.096zM347.447 265.32c0.030 20.187 16.387 36.543 36.57 36.573h621.696c20.187-0.030 36.543-16.387 36.573-36.57v-146.296h-694.893zM438.88-8.98c0-10.099-8.187-18.287-18.287-18.287h-36.733c-10.099 0-18.287 8.187-18.287 18.287v0 36.573h73.147zM472.308-27.267c1.993 5.432 3.146 11.704 3.146 18.245 0 0.015 0 0.029 0 0.044v-0.002 36.573h438.827v-36.573c0-0.012 0-0.027 0-0.042 0-6.541 1.153-12.813 3.266-18.624l-0.12 0.379zM1024-8.98c0-10.099-8.187-18.287-18.287-18.287h-36.573c-10.099 0-18.287 8.187-18.287 18.287v0 36.573h73.147zM329.16 64.007v18.287h731.36v-18.287z" />
<glyph unicode="&#xe911;" glyph-name="phone" d="M941.83 287.838c-0.296-0.001-0.646-0.001-0.997-0.001-64.924 0-127.363 10.642-185.667 30.278l4.1-1.198c-7.663 2.562-16.486 4.039-25.654 4.039-21.359 0-40.845-8.021-55.61-21.216l0.081 0.071-115.13-86.907c-124.506 62.89-223.198 161.561-284.447 282.42l-1.668 3.629 84.407 112.367c14.97 14.976 24.229 35.662 24.229 58.51 0 8.969-1.427 17.605-4.065 25.693l0.165-0.585c-18.52 54.364-29.211 116.99-29.211 182.113 0 0.274 0 0.547 0.001 0.821v-0.042c-0.037 45.366-36.804 82.133-82.166 82.17h-188.027c-45.366-0.037-82.133-36.804-82.17-82.166v-0.004c0.598-519.917 421.912-941.231 941.771-941.83h0.059c45.366 0.037 82.133 36.804 82.17 82.166v187.502c-0.037 45.366-36.804 82.133-82.166 82.17h-0.004z" />
<glyph unicode="&#xe912;" glyph-name="search" d="M751.47 299.032c50.317 68.143 80.534 153.798 80.534 246.512 0 230.605-186.943 417.548-417.548 417.548s-417.548-186.943-417.548-417.548c0-230.605 186.943-417.548 417.548-417.548 92.714 0 178.37 30.217 247.657 81.341l-1.145-0.807 272.53-272.433 90.502 90.405-272.53 272.53zM415.988 255.976c-159.051 0-287.988 128.937-287.988 287.988s128.937 287.988 287.988 287.988c159.051 0 287.988-128.937 287.988-287.988v0c-0.194-158.973-129.015-287.794-287.969-287.988h-0.019z" />
<glyph unicode="&#xe913;" glyph-name="social-facebook" horiz-adv-x="512" d="M418.571 789.97h93.479v162.797c-39.612 4.61-85.506 7.24-132.015 7.24-1.463 0-2.925-0.003-4.387-0.008l0.227 0.001c-134.819 0-227.143-84.789-227.143-240.604v-143.408h-148.733v-182.036h148.733v-458.002h182.337v458.002h142.755l22.654 182.036h-165.409v125.576c0 52.591 14.215 88.607 87.502 88.607z" />
<glyph unicode="&#xe914;" glyph-name="social-instagram" d="M746.832 960h-469.616c-153.047-0.136-277.080-124.169-277.216-277.203v-469.677c0.163-153.027 124.186-277.032 277.203-277.168h469.677c153.010 0.163 277.004 124.158 277.168 277.152v469.68c-0.136 153.047-124.169 277.080-277.203 277.216h-0.013zM511.856 168.010c-154.573 0.082-279.847 125.406-279.847 279.99 0 154.634 125.356 279.99 279.99 279.99 154.584 0 279.909-125.274 279.99-279.839v-0.007c-0.109-154.67-125.464-280.025-280.123-280.134h-0.010zM798.879 661.975c-45.706 0-82.758 37.052-82.758 82.758s37.052 82.758 82.758 82.758c45.706 0 82.758-37.052 82.758-82.758v0c-0.027-45.695-37.063-82.731-82.755-82.758h-0.003zM512 667.955c-121.531 0-220.050-98.52-220.050-220.050s98.52-220.050 220.050-220.050c121.531 0 220.050 98.52 220.050 220.050v0c0 121.531-98.52 220.050-220.050 220.050v0zM798.735 767.456c-12.549 0-22.723-10.173-22.723-22.723s10.173-22.723 22.723-22.723c12.549 0 22.723 10.173 22.723 22.723v0c0 12.549-10.173 22.723-22.723 22.723v0z" />
<glyph unicode="&#xe915;" glyph-name="social-linkedin" d="M1023.755-64h0.245v375.758c0 183.733-39.543 325.225-254.332 325.225-2.45 0.096-5.326 0.151-8.215 0.151-81.772 0-153.264-44.017-192.074-109.65l-0.567-1.036h-2.944v93.216h-203.652v-683.615h212.041v338.521c0 89.144 16.877 175.295 127.264 175.295 108.768 0 110.387-101.703 110.387-181.035v-332.829zM17.073 619.664h212.090v-683.664h-212.090zM122.947 960c-0.16 0.001-0.349 0.001-0.538 0.001-68.227 0-123.535-55.309-123.535-123.535s55.309-123.535 123.535-123.535c68.227 0 123.535 55.309 123.535 123.535 0 0.207-0.001 0.413-0.002 0.619v-0.032c-0.028 67.908-55.084 122.947-122.996 122.947 0 0 0 0 0 0v0z" />
<glyph unicode="&#xe916;" glyph-name="social-pinterest" d="M767.174 960h-511.174c-141.408-0.662-255.808-115.352-256-256.808v-510.997c0.577-141.152 114.848-255.423 255.944-256h511.23c141.674 0.413 256.413 115.151 256.826 256.786v510.193c-0.413 141.674-115.151 256.413-256.786 256.826h-0.040zM563.074 305.762c-1.091-0.039-2.374-0.061-3.661-0.061-36.511 0-68.855 17.84-88.791 45.279l-0.219 0.316s-21.965-84.507-26.825-100.787c-16.653-46.163-39.709-86.044-68.574-120.946l0.54 0.672c-0.878-1.349-2.38-2.229-4.086-2.229-2.613 0-4.745 2.063-4.855 4.649v0.010c-3.447 20.267-5.416 43.612-5.416 67.418 0 25.561 2.271 50.592 6.622 74.901l-0.38-2.559c7.338 30.080 48.595 199.921 48.595 199.921-7.707 16.575-12.203 35.98-12.203 56.436 0 0.438 0.002 0.876 0.006 1.314v-0.067c0 54.427 32.51 95.101 73.136 95.101 0.426 0.013 0.926 0.020 1.429 0.020 27.67 0 50.102-22.431 50.102-50.102 0-1.804-0.095-3.586-0.281-5.341l0.019 0.218c-8.28-49.602-19.864-93.345-35.018-135.383l1.682 5.342c-1.020-4.049-1.606-8.697-1.606-13.482 0-31.696 25.695-57.391 57.391-57.391 1.54 0 3.066 0.061 4.575 0.18l-0.199-0.013c71.532 0 120.273 89.415 120.273 195.062 0 80.474-56.079 140.586-157.643 140.586-2.905 0.17-6.303 0.267-9.724 0.267-97.383 0-176.416-78.565-177.173-175.77v-0.072c-0.047-1.169-0.073-2.541-0.073-3.92 0-26.174 9.553-50.116 25.363-68.53l-0.118 0.14c7.338-8.115 8.115-11.371 5.686-20.313-1.604-6.512-5.686-22.743-8.115-29.157-1.084-6.024-6.286-10.535-12.541-10.535-2.264 0-4.39 0.591-6.232 1.627l0.064-0.033c-46.613 23.635-78.003 71.201-78.003 126.099 0 5.068 0.268 10.074 0.789 15.004l-0.053-0.614c0 104.043 91.019 229.175 270.627 229.175 144.668 0 239.769-101.564 239.769-210.466-0.778-144.668-82.758-251.967-204.732-251.967z" />
<glyph unicode="&#xe917;" glyph-name="social-twitter" horiz-adv-x="1260" d="M1260.278 838.77c-43.305-19.44-93.548-33.784-146.166-40.537l-2.685-0.281c53.566 32.168 93.805 81.857 113.16 141l0.515 1.817c-47.154-28.463-102.037-50.167-160.503-61.993l-3.312-0.559c-47.264 50.385-114.261 81.774-188.59 81.774-142.685 0-258.355-115.669-258.355-258.355 0-0.013 0-0.027 0-0.040v0.002c-0.009-0.8-0.014-1.746-0.014-2.693 0-19.902 2.185-39.295 6.329-57.949l-0.33 1.769c-215.346 10.858-404.779 113.295-531.506 268.848l-1.050 1.331c-22.246-37.385-35.396-82.433-35.396-130.552 0-89.175 45.163-167.802 113.864-214.256l0.913-0.582c-43.012 1.194-83.053 12.852-117.997 32.503l1.281-0.662v-2.846c0.152-124.615 88.091-228.648 205.289-253.588l1.699-0.303c-19.695-5.396-42.309-8.496-65.647-8.496-0.741 0-1.48 0.003-2.219 0.009l0.113-0.001c-1.242-0.024-2.706-0.038-4.174-0.038-15.885 0-31.392 1.622-46.364 4.708l1.477-0.254c34.427-103.342 129.030-177.060 241.245-179.9l0.331-0.007c-87.213-68.702-198.662-110.191-319.8-110.191-0.199 0-0.399 0-0.598 0h0.031c-0.997-0.007-2.176-0.012-3.356-0.012-20.605 0-40.909 1.288-60.836 3.787l2.376-0.243c111.308-72.694 247.592-115.935 393.975-115.935 0.84 0 1.679 0.001 2.518 0.004h-0.129c1.506-0.011 3.287-0.018 5.070-0.018 403.345 0 730.321 326.976 730.321 730.321 0 1.714-0.006 3.427-0.018 5.138l0.001-0.264c0 11.431-0.392 22.47-0.932 33.411 51.146 36.897 94.14 81.375 128.3 132.278l1.172 1.854z" />
<glyph unicode="&#xe918;" glyph-name="social-whatsapp" d="M512.13 960v0c-0.159 0-0.348 0-0.537 0-282.591 0-511.675-229.085-511.675-511.675 0-112.886 36.556-217.233 98.476-301.851l-1.006 1.442-63.821-190.231 196.788 62.913c79.306-52.932 176.815-84.468 281.69-84.468 282.734 0 511.935 229.201 511.935 511.935 0 282.704-229.153 511.887-511.846 511.935h-0.004zM810.072 236.993c-20.919-37.349-56.957-64.107-99.608-72.122l-0.897-0.14c-26.749-5.713-61.679-10.258-179.323 38.501-105.15 52.226-191.306 128.849-253.41 222.769l-1.486 2.391c-33.577 42.515-55.722 95.479-61.010 153.317l-0.084 1.14c-0.037 1.298-0.058 2.825-0.058 4.357 0 47.498 20.256 90.265 52.602 120.134l0.111 0.101c13.022 11.456 30.214 18.447 49.038 18.447 1.158 0 2.309-0.026 3.454-0.079l-0.162 0.006c6.493 0 12.011 0 17.14-0.584 15.063-0.649 22.594-1.558 32.463-25.256 12.336-29.736 42.461-103.231 46.032-110.762 2.856-4.551 4.55-10.084 4.55-16.012 0-4.227-0.861-8.252-2.418-11.91l0.075 0.199c-4.434-9.050-9.97-16.806-16.568-23.515l0.012 0.012c-7.531-8.7-14.738-15.387-22.269-24.736-6.882-8.116-14.738-16.816-6.038-31.878 23.476-39.527 51.034-73.49 82.813-102.964l0.291-0.267c33.803-30.948 73.651-55.962 117.48-73.006l2.567-0.878c4.057-1.96 8.822-3.105 13.855-3.105 8.616 0 16.448 3.357 22.26 8.834l-0.016-0.015c13.246 15.62 26.389 32.888 38.614 50.832l1.38 2.147c5.078 8.392 14.155 13.915 24.523 13.915 4.441 0 8.646-1.014 12.395-2.822l-0.171 0.074c13.829-4.804 87-40.968 101.997-48.434s24.931-11.167 28.632-17.465c1.073-6.213 1.686-13.368 1.686-20.666 0-18.278-3.846-35.657-10.772-51.373l0.321 0.817z" />
<glyph unicode="&#xe919;" glyph-name="menu, list, options, lines, hamburger" d="M64 768h896v-192h-896zM64 512h896v-192h-896zM64 256h896v-192h-896z" />
</font>
</defs>
</svg>
